[img]http://img101.imageshack.us/img101/508/angelinajoliesaltposter.jpg[/img]
[code]
 Salt R5 LiNE XViD - IMAGiNE
********************************************************************************************************************

Ripper ...........: IMAGiNE                                        IMDB Rating.......:6.7/10                             
Video Codec.......: XVID                                         Release Date......:20/08/10
Audio Codec.......:MP3                                           Theatre Date......:23/07/10
Audio Bitrate.....:192                                              Runtime.......:1h 35mn
Subtitles.........:ENG WHEN NEEDED                 Language..........:ENGLISH
Resolution...... 720 x 304                                       IMDb URL..........:http://www.imdb.com/title/tt0944835/


DETAILS:

Video
ID                               : 0
Format                           : MPEG-4 Visual
Format profile                   : Advanced Simple@L5
Format settings, BVOP            : Yes
Format settings, QPel            : No
Format settings, GMC             : No warppoints
Format settings, Matrix          : Default (MPEG)
Muxing mode                      : Packed bitstream
Codec ID                         : XVID
Codec ID/Hint                    : XviD
Duration                         : 1h 35mn
Bit rate                         : 1 854 Kbps
Width                            : 720 pixels
Height                           : 304 pixels
Display aspect ratio             : 2.35
Frame rate                       : 25.000 fps
Resolution                       : 24 bits
Colorimetry                      : 4:2:0
Scan type                        : Progressive
Bits/(Pixel*Frame)               : 0.339
Stream size                      : 1.24 GiB (90%)
Writing library                  : XviD 1.2.1 (UTC 2008-12-04)

Audio
ID                               : 1
Format                           : MPEG Audio
Format version                   : Version 1
Format profile                   : Layer 3
Codec ID                         : 55
Codec ID/Hint                    : MP3
Duration                         : 1h 35mn
Bit rate mode                    : Constant
Bit rate                         : 192 Kbps
Channel(s)                       : 2 channels
Sampling rate                    : 48.0 KHz
Resolution                       : 16 bits
Stream size                      : 132 MiB (9%)
Alignment                        : Aligned on interleaves
Interleave, duration             : 40 ms (1.00 video frame)
Interleave, preload duration     : 504 ms


SOURCES:

VIDEO:Russian DVDR........ Thanks 
AUDIO:Rx ............ Thanks

NOTES:

IMAGiNE bringing you another release.....Salt

Ok bit late bring this to the table,but better late then never i guess 
Well used the russian video like everyone else....source files were nice but looked too dark and dull looking and lacked
some colour.
Audio was nice a we prefered it to laps so .....
Video we did our normal stuff and wrote a script using crop,resize,white balance,brightness,contrast,rgb colours and sharpness.
Then it was just a case of muxing Rx's audio over the video ...no syncing was needed as Rx had already did all this,so thanks guys 

Anyway enjoy this top flick 

Coming up releases:
The experiment dvdscr .....off the vobs 
The Twilight Saga Eclipse...off the vobs ( and yes full this time )
[/code]
Screens:
[img]http://img713.imageshack.us/img713/8458/75107409.png[/img]
h[img]ttp://img841.imageshack.us/img841/829/92374303.png[/img]
[img]http://img823.imageshack.us/img823/7417/90330000.png[/img]
[img]http://img43.imageshack.us/img43/3402/80340571.png[/img]
